<?xml version="1.0" encoding="UTF-8" standalone="no"?>
<!-- Created with Inkscape (http://www.inkscape.org/) -->

<svg
   width="512"
   height="512"
   viewBox="0 0 512 512"
   version="1.1"
   id="svg1"
   xml:space="preserve"
   xmlns="http://www.w3.org/2000/svg"
   xmlns:svg="http://www.w3.org/2000/svg"><defs
     id="defs1" /><rect
     style="fill:#092d53;fill-opacity:1;stroke:#ffffff;stroke-width:1.5"
     id="rect1"
     width="489.95819"
     height="488.69864"
     x="11.020905"
     y="11.650681"
     ry="32.747845" /><g
     id="layer1"><path
       id="path1"
       style="display:inline;fill:#ffffff;fill-opacity:1;stroke-width:0.844266"
       d="M255.43 44.58c-4.73 .03 -9.37 .26 -13.98 .67 -53.45 4.81 -96.29 25.05 -133.01 62.86 -6.5 6.69 -14.14 15.2 -16.97 18.92 -38.18 50.02 -52.22 114.2 -38.53 176.01 18.75 84.62 87.57 149.54 172.56 162.79 13.63 2.13 44.96 2.11 59.6 -.03 58.39 -8.53 109.81 -40.98 142.58 -90 19.74 -29.52 31.22 -60.42 35.51 -95.55 2.1 -17.19 .75 -47.41 -2.89 -64.86 -3.18 -15.27 -9.58 -35.45 -15.1 -47.67l-3.49 -7.71 -3.66 2.42c-2.01 1.33 -5.3 3.25 -7.31 4.26 -2.01 1.01 -3.66 2.21 -3.66 2.67 0 .46 2.03 6.05 4.51 12.41 9.48 24.32 13.34 43.06 14.25 69.07 .51 14.82 .24 22.01 -1.21 31.86 -9.54 64.59 -48.42 119.2 -105.06 147.56 -10.91 5.46 -24.01 10.76 -29.56 11.96 -3.52 .76 -3.11 .28 3.94 -4.52 22.12 -15.06 40.19 -35.09 54.32 -60.22 4.53 -8.07 12.81 -28.42 16.47 -40.52 4.38 -14.49 12.85 -52.61 14.31 -64.4 2.4 -19.38 -.28 -44.24 -6.99 -65.05 -3.02 -9.35 -13.86 -31.73 -16.46 -33.98 -1.09 -.94 -6.29 -2.31 -11.56 -3.02 -5.26 -.72 -10.73 -1.62 -12.15 -2 -2.17 -.58 -1.58 .65 3.68 7.62 6.77 8.97 16.03 26.72 19.59 37.57 4.6 14.02 6.25 25.27 6.27 42.78 .02 18.16 -.9 24.2 -6.3 41.09 -17.13 53.65 -65.19 89.48 -119.72 89.25C191.64 386.57 139.04 337.45 130.93 270.56 124.3 215.83 155.86 159.29 205.61 136.8c.46 -.21 .84 13.02 .84 29.4v29.78l-5.71 .55c-7.35 .71 -14.12 5.38 -17.6 12.13l-2.6 5.06 -.05 63.6 -.05 63.6 5.4 4.86c10.36 9.32 9.35 15.93 9.35 -60.63v-67.67l3.29 -3.29 3.29 -3.29h54.06 54.06l3.16 2.72 3.16 2.72 .56 68.48 .56 68.48 7.65 -7.27 7.65 -7.26 -.33 -61.96 -.33 -61.97 -2.68 -5.45c-3.34 -6.79 -9.64 -11.48 -17.66 -13.14l-6.11 -1.27v-29.74 -29.74l5.91 2.68c3.25 1.47 9.42 4.3 13.71 6.28 21.26 9.82 40.61 14.6 62.6 15.49 16.97 .68 27.42 -.86 37.27 -5.49 19.75 -9.3 27.11 -27.94 18.17 -46.02 -4.01 -8.12 -15.48 -22.97 -25.45 -32.96 -19.17 -19.21 -47.92 -29.07 -74.51 -25.55 -20.76 2.74 -27.31 2.67 -42.38 -.45 -16.38 -3.39 -31.24 -5 -45.42 -4.9z
             M262.88 63.05c10.65 .4 21.6 1.65 33 3.75 14.57 2.68 24.54 2.83 38.34 .56 21.02 -3.45 37.86 -1.66 52.89 5.63 11.06 5.37 20.24 13.25 31.03 26.66 14.01 17.41 16.08 23.84 10.66 33.08 -4.81 8.21 -15.48 11.74 -35.48 11.74 -22.69 0 -41.84 -5.34 -69.79 -19.48 -19.75 -9.99 -29.26 -13.16 -47.89 -15.97 -50.43 -7.6 -102.34 14.59 -134.25 57.4 -12.04 16.16 -23.7 43.24 -27.37 63.6 -2.26 12.55 -1.98 42.19 .51 54.03 6.31 30.01 20.28 57.23 39.43 76.83 3.89 3.98 6.77 7.28 6.64 7.57 -.52 .04 -5.84 -2.2 -11.9 -4.93C100.66 341.84 68.81 301.46 66.1 258.74 64.94 240.44 68.5 217.18 75.85 195.03 91.81 146.94 127.72 105.22 172.12 83.17 201.82 68.42 230.94 61.86 262.88 63.05Z
             M257 126.39c13.05 .05 29.91 2.42 31.99 4.5 .6 .6 1.32 15.07 1.64 32.66l.57 31.59h-34.49 -34.49v-31.99 -31.99l3.66 -1.16c7.6 -2.4 18.33 -3.65 31.13 -3.6z
             M233.47 159.12v7.32 7.32h7.88 7.88v-7.32 -7.32h-7.88z
             M263.86 159.12v7.32 7.32h7.88 7.88v-7.32 -7.32h-7.88z
             M81.37 333.24 93.32 344.65c14.21 13.57 27.75 22.89 46.14 31.76 16.7 8.06 28.89 11.96 61.34 19.62 33.74 7.96 39.67 8.88 56.87 8.79 37.47 -.2 71.41 -14.91 99.72 -43.21l12.2 -12.2 -3.83 9.08c-9.57 22.68 -25.51 45.73 -41.19 59.54 -15.52 13.67 -28.12 20.99 -46.63 27.06 -10.13 3.32 -12.79 3.72 -26.46 4 -8.36 .17 -18.37 -.18 -22.25 -.77C189.88 442.34 151.97 423.07 123.53 394.59 106.54 377.58 91.84 357.08 84.29 339.89Z"/></g></svg>
