<?xml version="1.0" encoding="UTF-8" standalone="no"?>
<!-- Created with Inkscape (http://www.inkscape.org/) -->

<svg
   width="512"
   height="512"
   viewBox="0 0 512 512"
   version="1.1"
   id="svg1"
   xml:space="preserve"
   xmlns="http://www.w3.org/2000/svg"
   xmlns:svg="http://www.w3.org/2000/svg"><defs
     id="defs1" /><rect
     style="fill:#092d53;fill-opacity:1;stroke:#ffffff;stroke-width:1.5"
     id="rect1"
     width="489.95819"
     height="488.69864"
     x="11.020905"
     y="11.650681"
     ry="32.747845" /><g
     id="layer1"><path
       id="path1"
       style="display:inline;fill:#ffffff;fill-opacity:1;stroke-width:0.844266"
       d="m 255.42744,44.582541 c -4.72534,0.03467 -9.37284,0.259581 -13.97656,0.673829 -53.4548,4.809918 -96.28667,25.054002 -133.01172,62.86327 -6.49873,6.6906 -14.135794,15.2032 -16.970713,18.91797 -38.175896,50.02425 -52.223796,114.20352 -38.525391,176.00976 18.754249,84.61783 87.573714,149.53916 172.564464,162.78907 13.63175,2.1251 44.96478,2.11192 59.59765,-0.0254 58.38929,-8.52726 109.80972,-40.984 142.57813,-89.99609 19.73811,-29.52255 31.22067,-60.42087 35.50781,-95.54687 2.0977,-17.18718 0.75251,-47.4058 -2.88672,-64.86328 -3.18413,-15.2744 -9.57529,-35.45125 -15.10156,-47.66993 l -3.48633,-7.70898 -3.65625,2.42187 c -2.01109,1.33136 -5.30229,3.24743 -7.31445,4.25782 -2.01218,1.01037 -3.66016,2.21302 -3.66016,2.67382 0,0.4608 2.03069,6.04777 4.51172,12.41407 9.47926,24.32376 13.34419,43.06489 14.24609,69.07031 0.51385,14.81616 0.23967,22.00969 -1.21484,31.86133 -9.53633,64.59142 -48.4155,119.19868 -105.05664,147.55859 -10.90704,5.46105 -24.00536,10.76071 -29.55664,11.95703 -3.52228,0.75908 -3.10514,0.27956 3.93945,-4.51562 22.12257,-15.05866 40.18937,-35.08793 54.32032,-60.22266 4.53484,-8.06612 12.80762,-28.42182 16.46875,-40.52344 4.3822,-14.48507 12.85208,-52.60586 14.31054,-64.40429 2.39523,-19.37672 -0.27613,-44.24217 -6.98828,-65.05078 -3.01522,-9.34761 -13.85957,-31.73309 -16.46094,-33.97852 -1.09347,-0.94385 -6.29404,-2.30512 -11.55664,-3.02344 -5.26259,-0.71834 -10.73187,-1.61598 -12.15429,-1.99609 -2.16943,-0.57972 -1.57653,0.64746 3.68359,7.61523 6.77344,8.97241 16.02747,26.72356 19.58789,37.57422 4.59898,14.01582 6.24779,25.27017 6.26758,42.77539 0.0205,18.1597 -0.90434,24.19947 -6.29688,41.08789 -17.12973,53.64703 -65.18886,89.47662 -119.71679,89.25196 C 191.63592,386.56767 139.04017,337.44549 130.93135,270.563 124.295,215.82562 155.85563,159.2912 205.60713,136.79933 c 0.46435,-0.20992 0.84375,13.02067 0.84375,29.40039 v 29.78125 l -5.70703,0.54883 c -7.34533,0.70579 -14.12082,5.37664 -17.59766,12.13281 l -2.60352,5.05859 -0.0488,63.59766 -0.0488,63.59961 5.40429,4.85937 c 10.36372,9.31875 9.34571,15.92923 9.34571,-60.6289 v -67.66602 l 3.29101,-3.29102 3.28907,-3.29101 h 54.05664 54.05664 l 3.16015,2.7168 3.15821,2.71679 0.5625,68.48242 0.5625,68.48438 7.65039,-7.26563 7.65234,-7.26367 -0.33398,-61.96484 -0.33399,-61.9668 -2.68359,-5.44726 c -3.34383,-6.79212 -9.6399,-11.47717 -17.66211,-13.14258 l -6.10943,-1.26758 v -29.73828 -29.73633 l 5.91016,2.67773 c 3.25042,1.47293 9.42075,4.30026 13.71094,6.28126 21.25656,9.81522 40.60744,14.60271 62.60351,15.49023 16.9703,0.68474 27.41913,-0.85539 37.27149,-5.49414 19.74968,-9.29867 27.11141,-27.94195 18.17383,-46.02344 -4.01329,-8.11932 -15.47898,-22.969518 -25.44532,-32.955068 -19.17359,-19.210505 -47.92257,-29.068865 -74.51367,-25.554684 -20.7568,2.743139 -27.31008,2.672702 -42.37891,-0.447266 -16.37817,-3.391056 -31.23998,-5.004388 -45.41601,-4.900391 z m 7.44922,18.462891 c 10.64582,0.395447 21.6038,1.6504 33.00195,3.75 14.5733,2.68448 24.54464,2.83073 38.33789,0.56445 21.01925,-3.45355 37.8627,-1.65823 52.89063,5.63477 11.06396,5.3693 20.23757,13.25257 31.02539,26.66406 14.00785,17.414678 16.07671,23.836028 10.6582,33.082018 -4.81419,8.2148 -15.47871,11.74414 -35.48047,11.74414 -22.68551,0 -41.83711,-5.34458 -69.78711,-19.47851 -19.74986,-9.98723 -29.25865,-13.15857 -47.89062,-15.9668 -50.43401,-7.60146 -102.33726,14.5887 -134.25196,57.39648 -12.04456,16.15559 -23.69725,43.23602 -27.36718,63.60157 -2.26221,12.55375 -1.98348,42.19075 0.50781,54.0332 6.3139,30.01341 20.28307,57.23449 39.42578,76.82813 3.89155,3.98322 6.77193,7.27702 6.64453,7.57421 -6.2e-4,0.001 -0.003,0.005 -0.004,0.006 -0.002,0.003 -0.008,0.008 -0.0117,0.01 -0.006,0.003 -0.0147,0.004 -0.0234,0.004 -0.44941,0 -5.77085,-2.23994 -11.82617,-4.97071 C 100.65695,341.84452 68.814863,301.46439 66.10126,258.74269 64.938927,240.44344 68.497615,217.18024 75.849306,195.0298 91.810411,146.93941 127.71687,105.21795 172.11885,83.166522 201.82088,68.415552 230.93919,61.85909 262.87666,63.045432 Z m -5.87891,63.345688 c 13.0477,0.0461 29.91164,2.41946 31.99414,4.50196 0.59512,0.59512 1.32169,15.06539 1.63867,32.6582 l 0.56836,31.58984 h -34.49414 -34.49414 v -31.99414 -31.99414 l 3.65821,-1.1582 c 7.59613,-2.40484 18.3339,-3.64873 31.1289,-3.60352 z m -23.5293,32.72852 v 7.3164 7.31836 h 7.87891 7.88086 v -7.31836 -7.3164 h -7.88086 z m 30.39258,0 v 7.3164 7.31836 h 7.88086 7.87891 v -7.31836 -7.3164 h -7.87891 z M 81.366884,333.23683 93.32001,344.64894 c 14.20841,13.56558 27.75291,22.88934 46.14454,31.76367 16.70081,8.0586 28.89074,11.95647 61.33789,19.61523 33.73513,7.96277 39.67242,8.87897 56.86719,8.78711 37.46923,-0.20018 71.41203,-14.90811 99.71679,-43.21289 l 12.19727,-12.19726 -3.83203,9.08398 c -9.56684,22.68391 -25.50575,45.72631 -41.1875,59.54492 -15.51741,13.67373 -28.12156,20.98755 -46.63086,27.05664 -10.12514,3.31991 -12.78614,3.72239 -26.45508,3.9961 -8.35823,0.16733 -18.37255,-0.17982 -22.25391,-0.76954 C 189.88296,442.33916 151.9699,423.06982 123.529,394.59425 106.53939,377.58381 91.83611,357.08494 84.28876,339.89112 Z" /></g></svg>
