<?xml version="1.0" encoding="UTF-8" standalone="no"?>
<!-- Created with Inkscape (http://www.inkscape.org/) -->

<svg
   width="512"
   height="512"
   viewBox="0 0 512 512"
   version="1.1"
   id="svg1"
   xmlns="http://www.w3.org/2000/svg"
   xmlns:svg="http://www.w3.org/2000/svg">
  <defs
     id="defs1" />
  <g
     id="layer1">
    <path
       fill="#ffffff"
       d="M 3.8064934,4.2841823 H 511.94376 V 512.42145 H 3.8064934 Z"
       id="path1"
       style="display:inline;stroke-width:0.248114" />
    <path
       id="path2"
       style="display:inline;fill:#ed7008;fill-opacity:1;stroke-width:0.231067"
       d="m 330.43555,165.24219 c -4.32211,0.0398 -8.61255,0.25753 -12.35352,0.96679 -10.47888,1.98717 -17.08256,13.26205 -26.88672,15.42969 -2.47468,0.54739 -10.34337,0.31728 -13.27343,0.29297 0.005,2.08295 -0.0356,4.3332 0.0176,6.40039 -0.0298,3.74883 -0.0377,7.49727 -0.0215,11.24609 l -0.002,7.7129 0.01,11.2207 c -0.002,2.6166 -0.0391,5.29567 0.0371,7.90625 l -0.0332,11.13672 v 6.54492 c 3.11478,-0.0231 10.55397,-0.25171 13.25976,0.34375 10.07682,2.22054 16.26587,13.46897 27.19532,15.44922 7.35948,1.33325 16.68697,0.84675 24.28906,0.84375 l 37.3164,0.008 c 0.0207,-3.66241 0.0868,-7.43668 -0.0195,-11.08984 l 64.69336,-0.0371 -0.004,-73.21094 h -0.004 l 0.004,72.96875 -64.69336,0.0371 c -0.26573,-4.01594 -0.0115,-11.42873 0,-15.61914 l 0.0156,-29.92774 c 0.007,-10.74784 0.0324,-21.49608 -0.12695,-32.24414 -0.0289,-2.04068 -0.0417,-4.25113 0.10937,-6.28515 l -36.98828,0.006 c -3.86574,-0.002 -8.21891,-0.13944 -12.54101,-0.0996 z m 49.6875,3.03125 c 0.0346,2.70008 -0.051,5.92721 -0.0605,7.93359 h 0.004 c 0.015,-2.08015 0.0982,-5.29132 0.0566,-7.93359 z" />
    <path
       fill="#b4b3b2"
       d="m 379.98711,165.3355 c 0.26572,2.71087 0.0924,8.19871 0.0786,11.11292 l 64.5947,-0.0416 0.004,73.21095 -64.69406,0.037 c -0.26573,-4.01594 -0.0115,-11.42994 0,-15.62035 l 0.0162,-29.92706 c 0.007,-10.74784 0.0323,-21.49568 -0.12708,-32.24374 -0.03,-2.12189 -0.0439,-4.4284 0.12708,-6.5281 z"
       id="path3"
       style="display:inline;stroke-width:0.231067" />
    <path
       fill="#5e5d5d"
       d="m 402.19031,223.87256 c 4.69759,0.0294 9.49915,-0.0354 14.20367,-0.0534 l 0.003,14.76331 -14.21523,0.004 z"
       id="path4"
       style="display:inline;stroke-width:0.231067" />
    <path
       fill="#5e5d5d"
       d="m 402.17875,187.4978 c 4.73687,0.0268 9.47374,0.0233 14.21061,-0.01 v 14.69908 c -4.72763,-0.0344 -9.45757,-0.0224 -14.18519,0.0361 z"
       id="path5"
       style="display:inline;stroke-width:0.231067" />
    <path
       fill="#f96e66"
       d="m 277.918,199.57889 c -2.87446,0.16336 -5.73276,0.33505 -8.57487,0.77962 -21.67591,3.39207 -39.98379,17.60728 -53.98413,33.80391 -5.23805,6.05972 -9.7651,12.73108 -14.70231,19.02302 -13.59966,17.33464 -31.5665,33.06104 -53.26319,38.85157 -16.20425,4.35098 -34.02505,2.58101 -48.591258,-5.98233 -16.511801,-9.91044 -28.425832,-25.95571 -33.134737,-44.62961 -5.220029,-19.82714 -2.346022,-40.91591 7.989362,-58.62301 11.272826,-18.96364 29.529173,-29.37089 50.422453,-34.73626 -1.3954,1.41436 -3.4586,2.98654 -5.01183,4.28768 -5.73832,4.80642 -10.57362,10.10108 -15.48725,15.68827 -1.05251,1.1967 -4.451268,3.12402 -5.859618,4.23522 -2.549125,2.0112 -4.890298,4.03097 -7.035516,6.51053 -11.533703,12.50511 -17.11096,29.56084 -16.197089,46.49526 0.883365,16.36692 7.964414,33.05547 20.323473,44.10509 10.99462,9.83189 23.41283,14.33537 38.10336,13.65373 23.08496,-1.07447 42.63367,-16.88867 56.66357,-34.06386 6.60713,-8.08687 12.1867,-16.69134 19.34675,-24.61531 15.30125,-16.93395 34.29009,-30.80489 57.17146,-34.90262 4.06215,-0.72716 7.7546,-0.90324 11.84217,-1.12761 -0.03,3.74883 -0.037,7.49789 -0.0208,11.24671 z"
       id="path6"
       style="display:inline;stroke-width:0.231067" />
    <path
       fill="#f96e66"
       d="m 178.66329,281.09369 c 14.84882,0.17561 23.78555,-2.06111 32.6197,-14.79752 18.85504,-27.18569 28.14369,-56.39553 66.63271,-59.00381 l 0.0115,11.21968 c -29.55575,1.7977 -38.4948,25.8559 -52.25066,46.96846 -5.71035,8.81059 -12.44202,16.9164 -20.05543,24.14648 -30.6563,28.91569 -85.83664,53.08064 -121.438478,16.49354 -11.827384,-12.15642 -16.086405,-29.20915 -15.444735,-45.88291 2.452079,4.38794 4.525907,7.8424 7.707233,11.76591 1.42915,1.76535 3.723637,3.92582 4.82259,5.65883 0.57351,0.90577 1.431456,4.51735 1.922711,5.85061 1.96568,5.38847 4.970247,10.33792 8.843152,14.56875 8.815657,9.80647 21.426347,14.74899 34.371867,15.22499 16.36345,0.60077 32.49468,-5.21287 46.49594,-13.27248 3.39044,-1.95251 8.82051,-5.01183 11.67904,-7.59516 -8.39651,0.0832 -12.07994,-0.48755 -20.19108,-2.34533 5.29466,-2.87678 9.26139,-5.60799 14.27392,-9.00004 z"
       id="path7"
       style="display:inline;stroke-width:0.231067" />
    <path
       fill="#f96e66"
       d="m 172.58115,99.309806 c 9.73601,-0.802729 7.44521,7.734504 5.17197,13.655574 -6.47541,16.94135 -22.51098,30.85665 -36.76133,41.45845 -24.19707,18.00195 -43.599746,38.99229 -33.25212,71.67412 7.56258,23.88491 24.01708,36.2955 45.09475,47.77721 -2.07729,0.93351 -4.05383,1.64289 -6.18542,2.4262 -3.05147,1.02132 -5.50147,1.53891 -8.61509,2.14892 -15.44704,-9.37438 -27.97734,-21.0987 -36.27101,-37.34707 -5.665527,-10.92531 -8.378705,-23.14134 -7.870825,-35.43779 0.459131,-8.94343 2.903352,-17.67221 7.155445,-25.55344 12.22412,-22.68474 34.36817,-33.15738 51.9944,-50.70874 5.95783,-5.9375 11.25087,-12.69157 14.23625,-20.62895 1.57796,-4.19523 0.81058,-7.28992 5.30298,-9.464484 z"
       id="path8"
       style="display:inline;stroke-width:0.231067" />
    <path
       fill="#f96e66"
       d="m 217.60659,90.963904 c 5.21286,-0.558025 8.08733,2.8613 6.82271,7.923508 -4.91664,19.679958 -19.96463,35.352278 -36.53489,46.171748 -7.2444,4.72993 -15.09097,8.53237 -22.38343,13.1812 -18.07243,11.74536 -33.69947,28.37084 -45.33414,46.44742 -2.92022,4.53699 -5.29952,9.58395 -7.45514,14.45275 -0.51111,1.28266 -1.10588,2.54521 -1.68031,3.80221 -1.46035,-6.37352 -2.73398,-15.15936 -1.187,-21.65095 0.8092,-3.39645 7.38281,-12.32603 9.75264,-15.32573 10.14753,-12.84338 22.85042,-25.64032 36.31768,-34.95093 5.58996,-3.86459 13.1916,-7.77285 19.10691,-11.2303 9.72399,-5.54375 18.63484,-12.23152 25.98438,-20.677 6.56391,-7.54271 10.4925,-15.02488 12.93766,-24.604211 0.48131,-1.885509 1.92871,-2.745768 3.65293,-3.539715 z"
       id="path9"
       style="display:inline;stroke-width:0.231067" />
    <path
       fill="#f96e66"
       d="m 158.81304,323.4667 c 7.77447,-3.10091 15.44058,-6.50684 22.84881,-10.43959 0.81151,-0.42979 5.34734,-0.85726 6.61267,-1.11605 23.27719,-4.75074 42.1535,-21.04556 50.90515,-43.06853 4.56126,-11.00108 7.81999,-22.61681 16.09611,-31.59977 6.46063,-7.01286 13.2586,-10.37765 22.68844,-10.82362 l -0.0347,11.13534 c -16.0499,0.61648 -22.1177,20.05821 -26.94701,32.11295 -1.80924,4.64445 -3.90802,9.16873 -6.28524,13.54976 -4.94067,8.96538 -11.56766,16.88867 -19.51636,23.34005 -15.00131,11.94383 -33.68653,18.3051 -52.85951,17.99548 -4.58091,-0.0393 -8.96401,-0.59154 -13.5084,-1.08602 z"
       id="path10"
       style="display:inline;stroke-width:0.231067" />
    <path
       fill="#f96e66"
       d="m 224.78075,143.43107 c 5.20224,-0.73895 9.13337,3.66656 6.38067,8.29298 -1.60798,2.70256 -7.51359,6.94355 -10.22955,8.82698 -11.79296,8.17884 -26.23924,12.1659 -40.50623,12.56865 -9.52619,0.26641 -16.02933,0.0344 -25.46425,2.1882 -2.07589,0.43879 -4.39212,1.16388 -6.38876,1.87556 4.88197,-4.61925 12.35189,-11.36894 18.34554,-14.578 1.79515,-0.96123 11.45814,-0.59106 14.3779,-0.7981 7.63953,-0.54161 13.916,-1.48691 21.19667,-4.26896 5.40489,-2.02461 10.46825,-4.86396 15.01449,-8.41984 2.49691,-1.96938 4.42816,-4.43509 7.27352,-5.68747 z"
       id="path11"
       style="display:inline;stroke-width:0.231067" />
    <path
       fill="#f96e66"
       d="m 95.381075,237.28552 c 2.743913,6.29957 5.744085,11.23931 9.289565,17.03677 0.015,0.0254 0.65739,7.88862 0.76206,8.82213 0.7304,3.75946 1.5597,7.21853 2.96459,10.81855 -1.47628,-0.81566 -7.88677,-4.71838 -8.889831,-6.0447 -1.039568,-0.72094 -4.294376,-3.37358 -4.739174,-4.30478 -2.713651,-5.69118 -0.31772,-20.59336 0.61279,-26.32797 z"
       id="path12"
       style="display:inline;stroke-width:0.231067" />
    <path
       fill="#f96e66"
       d="m 89.528616,211.93865 c 0.525213,0.51181 1.128757,11.0956 1.884348,12.43255 0.04341,0.0769 0.718389,3.2005 0.808495,3.59423 -2.281781,4.00994 -4.381716,8.05337 -6.311583,12.24377 -0.854708,1.85524 -1.382707,4.22575 -2.212933,5.73 l -0.267338,0.0532 -0.270346,-0.61695 c -2.174341,-5.00884 -3.433651,-10.68336 -4.181385,-16.0797 1.878346,-4.55225 7.458597,-13.1946 10.550742,-17.35704 z"
       id="path14"
       style="display:inline;stroke-width:0.231067" />
    <path
       fill="#f96e66"
       d="m 108.22907,295.11482 c 6.40771,1.75148 12.29737,3.00616 18.89756,3.4891 0.85148,0.0601 5.44001,3.16099 6.53803,3.82416 3.02259,1.8439 6.16486,3.48448 9.40603,4.91016 l -0.0287,0.2588 -0.80249,0.20103 c -5.01115,0.92195 -11.23285,1.76073 -16.24908,1.44648 -5.70735,-0.35816 -14.31273,-9.8758 -17.76141,-14.12973 z"
       id="path15"
       style="display:inline;stroke-width:0.231067" />
  </g>
</svg>
